<svg width="150" height="150" viewBox="0 0 150 150" fill="none" xmlns="http://www.w3.org/2000/svg">
<path d="M0 150H150V0H0V150Z" fill="white"/>
<path d="M129.471 98.9024C111.337 128.635 79.6718 138.506 47.1033 134.321C8.54246 129.366 6.0187 89.2124 5.96707 88.8351C0.768111 50.7884 19.0625 27.1364 28.9246 18.3711C42.4635 6.33813 65.3085 6.65988 75.5475 19.8869C82.2053 28.4871 88.1468 27.0981 93.6728 26.4351C99.201 25.7721 128.842 25.5764 137.42 46.6124C145.39 66.1581 139.222 82.9154 129.471 98.9024Z" fill="#FDEACF"/>
<path d="M42.1612 75.1582L41.3756 71.7877C40.0016 71.5335 38.6595 71.0557 37.4036 70.356L34.6483 72.4507L32.8985 70.8577L31.1487 69.264L32.9767 66.3255C32.162 65.1405 31.5613 63.849 31.1798 62.5042L27.7506 62.0377L27.6398 59.6737L27.5291 57.3097L30.8995 56.5245C31.1537 55.1505 31.631 53.808 32.3312 52.5525L30.2363 49.797L31.8295 48.0472L33.4226 46.2975L36.3617 48.1252C37.5467 47.3107 38.8383 46.71 40.1825 46.3282L40.6494 42.8992L41.6012 42.855L42.4142 50.1435C40.4777 50.442 38.6264 51.3795 37.2046 52.941C33.9038 56.5665 34.1669 62.1817 37.7923 65.4825C39.494 67.032 41.6333 67.7955 43.7665 67.7955C43.9715 67.7955 44.1763 67.7887 44.3807 67.7745L45.1885 75.0157L44.525 75.0472L42.1612 75.1582Z" fill="#FCE0BB"/>
<path d="M102.455 69.3511L101.562 67.2848C100.653 67.2818 99.7387 67.1318 98.8537 66.8288L97.3327 68.4893L96.0285 67.6718L94.7242 66.8551L95.553 64.7626C94.8945 64.0981 94.3605 63.3413 93.9607 62.5253L91.7115 62.6236L91.3672 61.1236L91.0222 59.6236L93.0885 58.7303C93.0915 57.8213 93.2415 56.9071 93.5445 56.0221L91.884 54.5011L92.7015 53.1968L93.5182 51.8926L95.6107 52.7221C96.2752 52.0628 97.032 51.5288 97.848 51.1291L97.7497 48.8798L99.2497 48.5356L100.75 48.1906L101.643 50.2568C102.552 50.2598 103.466 50.4098 104.351 50.7128L105.872 49.0531L107.176 49.8698L108.481 50.6866L107.651 52.7798C108.31 53.4436 108.844 54.2003 109.244 55.0171L111.493 54.9181L111.838 56.4181L112.183 57.9181L110.116 58.8113C110.113 59.7203 109.963 60.6346 109.66 61.5196L111.32 63.0406L110.503 64.3448L109.687 65.6491L107.593 64.8203C106.93 65.4788 106.173 66.0128 105.357 66.4126L105.455 68.6618L103.955 69.0068L102.455 69.3511ZM101.608 52.9958C99.6847 52.9958 97.8045 53.9558 96.7087 55.7063C95.016 58.4093 95.835 61.9726 98.538 63.6646C99.4905 64.2616 100.55 64.5458 101.597 64.5458C103.52 64.5458 105.4 63.5858 106.496 61.8353C108.189 59.1323 107.37 55.5698 104.667 53.8771C103.714 53.2801 102.655 52.9958 101.608 52.9958Z" fill="#FCE0BB"/>
<path d="M19.8758 79.2095L19.3264 78.1745C19.214 78.1835 19.1019 78.188 18.9902 78.188C18.62 78.188 18.2551 78.1407 17.9031 78.0515L17.1837 78.9755L16.4732 78.6057L15.7627 78.2367L16.1056 77.117C15.7468 76.8087 15.4353 76.4412 15.1868 76.0227L14.0245 76.1675L13.7833 75.404L13.542 74.6405L14.5765 74.0915C14.5394 73.6062 14.5832 73.1262 14.7 72.668L13.776 71.9487L14.1453 71.2377L14.5146 70.5275L15.6343 70.8702C15.9422 70.5117 16.3099 70.1997 16.7283 69.9515L16.5836 68.789L17.3471 68.5482L18.1107 68.3067L18.66 69.341C18.7723 69.3327 18.8845 69.3282 18.9961 69.3282C19.3663 69.3282 19.7313 69.3747 20.0833 69.4647L20.8027 68.5407L21.5133 68.9097L22.2237 69.2795L21.8808 70.3992C22.2396 70.7067 22.5512 71.075 22.7997 71.4927L23.962 71.348L24.2032 72.1122L24.4444 72.8757L23.41 73.4247C23.447 73.91 23.4033 74.39 23.2865 74.8482L24.2105 75.5675L23.8412 76.2777L23.4718 76.9887L22.3522 76.6452C22.0443 77.0045 21.6765 77.3157 21.2581 77.5647L21.4029 78.7265L20.6393 78.968L19.8758 79.2095ZM18.994 70.7532C18.6943 70.7532 18.3892 70.7982 18.0882 70.8935C16.5061 71.393 15.6289 73.0812 16.1287 74.663C16.5334 75.944 17.7169 76.763 18.9924 76.763C19.2922 76.763 19.5972 76.7172 19.8982 76.6227C21.4803 76.1225 22.3576 74.435 21.8577 72.8532C21.453 71.5722 20.2696 70.7532 18.994 70.7532Z" fill="#FCE0BB"/>
<path d="M114.535 97.4355L113.207 97.2495L111.878 97.0643L111.793 95.1038C111.032 94.8098 110.338 94.3973 109.729 93.8903L107.974 94.7693L107.167 93.6983L106.358 92.628L107.684 91.1813C107.363 90.4568 107.157 89.676 107.083 88.8638L105.22 88.245L105.406 86.916L105.592 85.587L107.552 85.5023C107.846 84.7418 108.259 84.0473 108.766 83.4383L107.887 81.684L108.958 80.8756L110.029 80.067L111.475 81.3931C112.199 81.0721 112.98 80.8658 113.792 80.7923L114.411 78.93L115.74 79.1153L117.069 79.3006L117.154 81.2618C117.914 81.5551 118.609 81.9675 119.218 82.4745L120.972 81.5956L121.78 82.6665L122.589 83.7375L121.263 85.1835C121.584 85.908 121.79 86.6895 121.864 87.501L123.727 88.1206L123.541 89.4488L123.355 90.7778L121.394 90.8633C121.101 91.6238 120.688 92.3183 120.181 92.9265L121.06 94.6815L119.989 95.49L118.918 96.2978L117.472 94.9718C116.748 95.2928 115.967 95.499 115.155 95.5733L114.535 97.4355ZM114.467 83.1481C111.996 83.1481 109.84 84.969 109.488 87.486C109.104 90.2393 111.024 92.7833 113.777 93.168C114.013 93.201 114.248 93.2168 114.48 93.2168C116.951 93.2168 119.107 91.3958 119.458 88.8788C119.843 86.1255 117.923 83.5815 115.17 83.1975C114.934 83.1645 114.699 83.1481 114.467 83.1481Z" fill="#FCE0BB"/>
<path d="M123.755 47.8325L123.158 47.7493L122.56 47.666L122.522 46.7848C122.18 46.6528 121.868 46.4675 121.595 46.2395L120.806 46.634L120.443 46.1533L120.079 45.6718L120.675 45.0215C120.531 44.696 120.438 44.345 120.405 43.9805L119.568 43.7023L119.651 43.1045L119.735 42.5075L120.616 42.4693C120.748 42.1273 120.933 41.8153 121.161 41.5415L120.766 40.7533L121.247 40.3903L121.729 40.0265L122.379 40.6228C122.705 40.4788 123.056 40.3858 123.42 40.3528L123.698 39.5158L124.296 39.599L124.893 39.6823L124.931 40.5635C125.273 40.6955 125.585 40.8808 125.859 41.1088L126.647 40.7135L127.01 41.195L127.374 41.6765L126.778 42.326C126.922 42.6515 127.015 43.0025 127.048 43.3678L127.885 43.646L127.802 44.243L127.718 44.8408L126.837 44.879C126.705 45.2203 126.52 45.533 126.292 45.806L126.687 46.595L126.206 46.958L125.724 47.3218L125.075 46.7255C124.748 46.8695 124.398 46.9625 124.033 46.9955L123.755 47.8325ZM123.724 41.4118C122.613 41.4118 121.644 42.23 121.486 43.361C121.313 44.5985 122.176 45.7415 123.413 45.9148C123.52 45.9298 123.625 45.9365 123.729 45.9365C124.84 45.9365 125.809 45.1183 125.967 43.9873C126.14 42.7498 125.277 41.606 124.04 41.4335C123.933 41.4185 123.828 41.4118 123.724 41.4118Z" fill="#FCE0BB"/>
<path d="M47.683 24.7614C48.8931 24.6924 51.7296 24.5716 54.1956 24.7794C55.2157 24.8656 56.0966 24.0504 56.0736 23.0266C56.0642 22.6081 55.914 22.1206 55.5252 21.5686C54.0279 19.4416 51.4254 21.4726 51.4504 22.5519C51.4504 22.5519 50.9243 20.9266 49.3263 21.2109C47.7282 21.4959 48.2934 23.8591 48.2934 23.8591C48.2934 23.8591 47.7777 23.7504 47.4201 23.9949C47.0686 24.2349 47.2581 24.7861 47.683 24.7614Z" fill="white"/>
<path d="M105.475 43.0957C104.222 40.8847 101.811 42.0487 101.811 42.0487C100.454 39.3517 98.1579 41.2297 98.1579 41.2297C98.1579 41.2297 98.4976 35.8717 93.7456 35.9362C89.6026 35.9932 89.5021 41.4645 89.5021 41.4645C88.6186 41.4615 88.0764 41.6887 87.7456 41.9925C87.3999 42.3097 87.4216 42.786 87.6654 43.0957H105.475Z" fill="white"/>
<path d="M34.8913 40.2417C33.8855 38.4672 31.9511 39.4017 31.9511 39.4017C30.8624 37.2372 29.0194 38.744 29.0194 38.744C29.0194 38.744 29.2915 34.4442 25.4781 34.496C22.1532 34.541 22.0724 38.9329 22.0724 38.9329C21.3634 38.9299 20.9282 39.1122 20.663 39.356C20.3855 39.611 20.4029 39.9934 20.5987 40.2417H34.8913Z" fill="white"/>
<path d="M33.7736 103.538C33.6961 104.638 24.4443 150 24.4443 150H55.3254C55.3254 150 57.1416 120.492 62.3631 112.057C67.5845 103.624 33.7736 103.538 33.7736 103.538Z" fill="#FFB294"/>
<path d="M62.0882 83.4525C59.6558 82.7528 50.9567 88.0336 48.7095 89.1533C47.2803 89.8651 41.8325 92.4555 38.0562 94.2465L37.754 93.978L34.9054 95.7398C34.5086 95.928 34.2816 96.0353 34.2816 96.0353L34.3525 96.0818L34.2964 96.1163L33.2547 110.907C33.0187 114.259 35.1357 117.325 38.3523 118.295C41.0547 119.111 49.0398 120.34 52.341 120.764C55.7278 121.2 58.912 119.18 60.0262 116.039C60.0264 116.039 69.1805 100.892 70.201 99.8273C72.0192 97.9298 73.9678 89.9963 73.9678 89.9963C73.9678 89.9963 64.5207 84.153 62.0882 83.4525Z" fill="#FFB294"/>
<path d="M60.8162 115.187C60.7798 115.194 60.7409 115.187 60.7071 115.166C60.6342 115.121 60.6117 115.026 60.6567 114.952L69.7332 100.152C69.7782 100.08 69.8738 100.057 69.9466 100.102C70.0194 100.147 70.0419 100.243 69.9969 100.316L60.9204 115.116C60.8964 115.155 60.8579 115.179 60.8162 115.187Z" fill="#010103"/>
<path d="M73.8743 50.9363C73.8743 50.9363 77.9039 48.9608 79.6386 52.0028C81.3726 55.0448 77.9294 58.0591 76.7924 58.5953C75.6554 59.1323 73.8743 50.9363 73.8743 50.9363Z" fill="#FFB294"/>
<path d="M75.1875 58.1881C75.1875 58.1881 79.2173 56.2126 80.9513 59.2546C82.686 62.2966 79.2427 65.3116 78.1057 65.8478C76.968 66.3841 75.1875 58.1881 75.1875 58.1881Z" fill="#FFB294"/>
<path d="M75.0876 64.8348C75.0876 64.8348 79.1174 62.8586 80.8521 65.9013C82.5861 68.9433 79.1429 71.9576 78.0059 72.4938C76.8689 73.0301 75.0876 64.8348 75.0876 64.8348Z" fill="#FFB294"/>
<path d="M45.762 74.8486C45.7285 74.8546 45.6928 74.8501 45.6605 74.8321C45.5852 74.7916 45.5573 74.6978 45.5981 74.6221L47.1755 71.7128C50.644 66.3526 49.9214 63.4081 49.9137 63.3788C49.3177 60.9128 48.2299 59.6528 47.4223 59.0296C46.5505 58.3561 45.8081 58.2593 45.8007 58.2586C45.7159 58.2481 45.6552 58.1708 45.6653 58.0861C45.6754 58.0013 45.7521 57.9406 45.8371 57.9503C45.8701 57.9541 46.6566 58.0531 47.5935 58.7701C48.4471 59.4226 49.5947 60.7396 50.2142 63.3023C50.2465 63.4216 50.9901 66.3863 47.4391 71.8763L45.8707 74.7698C45.8474 74.8133 45.8067 74.8403 45.762 74.8486Z" fill="#010103"/>
<path d="M46.3863 59.5356C46.7005 59.6699 47.0287 60.1056 47.0159 60.4634L47.0497 60.3606C47.1974 59.9121 46.8628 59.3271 46.4687 59.1591C45.839 58.8906 45.2303 58.7166 44.6812 58.6049C44.5928 58.7054 44.5153 58.8216 44.4463 58.9521C45.0341 59.0624 45.6978 59.2424 46.3863 59.5356Z" fill="#FCB6A9"/>
<path d="M39.0068 101.153C38.959 101.162 38.908 101.145 38.8739 101.106C37.7263 99.7819 37.3781 97.0129 37.3639 96.8951C37.3543 96.8171 37.4099 96.7474 37.4878 96.7369C37.5658 96.7279 37.6366 96.7834 37.6462 96.8606C37.6495 96.8891 37.9984 99.6619 39.0888 100.92C39.1402 100.98 39.1339 101.069 39.0745 101.121C39.0545 101.138 39.031 101.148 39.0068 101.153Z" fill="#010103"/>
<path d="M40.8883 101.715C40.8509 101.722 40.8109 101.714 40.778 101.69C39.3718 100.644 38.4343 98.0145 38.395 97.9035C38.369 97.8293 38.4079 97.7483 38.482 97.722C38.5562 97.6958 38.6373 97.7348 38.6633 97.809C38.6726 97.8353 39.6115 100.468 40.9478 101.462C41.0108 101.508 41.0239 101.597 40.977 101.66C40.9546 101.69 40.9226 101.709 40.8883 101.715Z" fill="#010103"/>
<path d="M74.7214 31.0658C74.7185 31.0455 74.7153 31.0253 74.7115 31.0058C74.5957 30.3323 73.9934 29.8515 73.3109 29.8868C73.2907 29.8875 73.2705 29.889 73.2502 29.8905L73.2301 29.892L43.2832 33.2318L43.2634 33.2355C43.2432 33.2378 43.2232 33.2415 43.2033 33.2453C42.5298 33.3608 42.0482 33.963 42.0836 34.6448C42.0844 34.665 42.0856 34.6853 42.0874 34.7055L42.0886 34.7258L49.0338 96.993C49.106 97.6403 49.6897 98.1068 50.3368 98.034L80.6287 94.6553C81.2752 94.5833 81.7424 94.0005 81.6697 93.3525L74.7246 31.0853L74.7214 31.0658Z" fill="white"/>
<path d="M41.5288 34.3977L43.791 32.4477L72.9786 29.2684L75.789 31.2342C75.789 31.2342 75.8325 33.8659 75.6765 33.9237C75.5205 33.9814 41.6945 38.1529 41.6376 37.6317C41.5809 37.1104 41.5288 34.3977 41.5288 34.3977Z" fill="#F9FAFE"/>
<path d="M47.4695 83.2043L49.0338 96.993C49.1061 97.6403 49.6897 98.1068 50.3368 98.034L80.6287 94.6553C81.2752 94.5833 81.7425 94.0005 81.6697 93.3525L80.115 79.6478L47.4695 83.2043Z" fill="#F9FAFB"/>
<path d="M44.3627 35.936C44.3147 35.936 44.268 35.9278 44.2236 35.9135C44.059 35.8618 43.9319 35.7155 43.9115 35.5325C43.8838 35.2843 44.0635 35.06 44.3117 35.0323C44.3288 35.03 44.3458 35.0293 44.3626 35.0293C44.5905 35.0293 44.7866 35.2003 44.8124 35.432C44.8329 35.615 44.7415 35.7845 44.5926 35.8723C44.5394 35.9045 44.4781 35.9255 44.4122 35.933C44.3956 35.9345 44.3791 35.936 44.3627 35.936Z" fill="#ADD9DF"/>
<path d="M45.7556 35.7803C45.7074 35.7803 45.6605 35.7728 45.6168 35.7585C45.4522 35.706 45.3257 35.5605 45.3053 35.3775C45.2776 35.1285 45.4567 34.9043 45.7055 34.8765C45.7226 34.875 45.7396 34.8743 45.7564 34.8743C45.9843 34.8743 46.1804 35.0453 46.2063 35.277C46.2266 35.46 46.1354 35.6295 45.9864 35.7173C45.9332 35.7488 45.872 35.7705 45.806 35.778C45.7892 35.7795 45.7723 35.7803 45.7556 35.7803Z" fill="#ADD9DF"/>
<path d="M47.1494 35.625C47.1011 35.625 47.0543 35.6175 47.0106 35.6032C46.846 35.55 46.7195 35.4052 46.6991 35.2222C46.6714 34.9732 46.8505 34.749 47.0993 34.7212C47.1164 34.7197 47.1334 34.7182 47.1502 34.7182C47.378 34.7182 47.5742 34.89 47.6 35.1218C47.6205 35.3048 47.5291 35.4742 47.3802 35.562C47.327 35.5935 47.2657 35.6152 47.1998 35.622C47.1829 35.6242 47.1661 35.625 47.1494 35.625Z" fill="#ADD9DF"/>
<path d="M72.4567 28.6096L43.7555 31.8113C41.9088 32.0168 40.5781 33.6811 40.7842 35.5283L47.6513 97.0951C47.8573 98.9423 49.522 100.272 51.3686 100.066L80.0701 96.8648C81.9174 96.6586 83.2471 94.9943 83.0409 93.1471L76.1739 31.5811C75.9684 29.7338 74.3041 28.4041 72.4567 28.6096ZM81.5979 92.7083C81.7104 93.7118 80.9866 94.6156 79.9839 94.7273L50.9822 97.9621C49.9786 98.0746 49.0741 97.3516 48.9621 96.3481L42.165 35.4091C42.04 34.2893 42.8467 33.2806 43.966 33.1561L72.5478 29.9678C73.6672 29.8433 74.6761 30.6488 74.801 31.7686L81.5979 92.7083Z" fill="#20111D"/>
<path d="M48.5015 74.5747L48.4131 73.7625L77.052 70.6432L77.1405 71.4547L48.5015 74.5747Z" fill="#ACD9DF"/>
<path d="M48.7991 77.3086L48.7107 76.4971L77.3496 73.3771L77.4381 74.1893L48.7991 77.3086Z" fill="#ACD9DF"/>
<path d="M49.097 80.043L49.0085 79.2307L77.6474 76.1115L77.7359 76.923L49.097 80.043Z" fill="#ACD9DF"/>
<path d="M73.1555 52.2417C73.4977 53.9592 73.4858 55.664 73.1703 57.2817C73.1623 57.3192 73.1549 57.3575 73.1475 57.395C73.1459 57.4032 73.1443 57.4115 73.1425 57.419C72.8342 58.913 72.2671 60.3297 71.4807 61.6092C71.4571 61.6475 71.4335 61.685 71.4098 61.7225C71.3848 61.763 71.3595 61.802 71.3332 61.8425C69.4891 64.7082 66.5291 66.8517 62.9218 67.5702C60.9503 67.9632 58.9941 67.889 57.1676 67.4247C56.8259 67.3377 56.4885 67.2365 56.1569 67.1225C56.1005 67.103 56.0441 67.0842 55.988 67.0632C55.8365 67.0092 55.6862 66.9522 55.5368 66.8922C55.4852 66.8712 55.4343 66.8502 55.3834 66.8292C54.3398 66.3957 53.3579 65.828 52.4626 65.1447C52.1375 64.8972 51.8242 64.634 51.5235 64.3565C50.8712 63.7527 50.2774 63.0815 49.7566 62.3502C48.7191 60.8952 47.9659 59.2025 47.5939 57.3357C46.1873 50.2775 50.7693 43.4142 57.8278 42.008C64.8869 40.601 71.749 45.1835 73.1555 52.2417Z" fill="#767AE3"/>
<path d="M57.9216 91.9902C56.3652 91.9902 55.0261 90.8172 54.8536 89.2347C54.6727 87.5735 55.8446 86.0772 57.4866 85.8425V85.8417H57.4907C57.5239 85.8372 70.3759 84.3972 70.4167 84.3927C70.5304 84.3807 70.6432 84.3747 70.7551 84.3747C70.807 84.3747 70.8586 84.3755 70.9099 84.3785C70.7683 84.851 70.7263 85.3677 70.7715 85.8957L69.7728 86.0075L70.1191 89.102L71.9056 88.9017C72.0433 89.1672 72.2379 89.549 72.4793 90.0267C72.0763 90.299 71.603 90.4797 71.0859 90.5367C71.0512 90.5405 71.0167 90.5427 70.9822 90.545L58.3863 91.955C58.3444 91.961 58.3025 91.967 58.2601 91.9715C58.1462 91.9842 58.0335 91.9902 57.9216 91.9902ZM70.4268 88.769L70.294 87.5825L71.1601 87.4857C71.3014 87.8352 71.4773 88.1742 71.6839 88.4915C71.6976 88.5125 71.7222 88.556 71.7571 88.6205L70.4268 88.769ZM70.2619 87.296L70.1461 86.2617L70.8052 86.1882C70.8547 86.5287 70.9393 86.8715 71.0556 87.2075L70.2619 87.296Z" fill="#767AE3"/>
<path d="M57.9051 87.6278L57.5833 87.6638L57.8634 90.1673L58.1393 90.1366C58.3719 90.1103 58.5542 90.0728 58.6863 90.0241C58.8184 89.9753 58.9275 89.9078 59.0137 89.8208C59.1318 89.7046 59.2156 89.5546 59.2649 89.3716C59.3142 89.1878 59.3259 88.9808 59.3001 88.7498C59.2724 88.5031 59.2146 88.2938 59.1263 88.1228C59.0379 87.9511 58.9211 87.8213 58.7759 87.7336C58.6745 87.6713 58.5614 87.6323 58.4368 87.6151C58.3121 87.5978 58.1349 87.6023 57.9051 87.6278ZM57.561 90.5078L57.2146 87.4133L57.9501 87.3308C58.1856 87.3046 58.3802 87.3023 58.5343 87.3233C58.6883 87.3451 58.828 87.3923 58.9533 87.4658C59.1407 87.5776 59.2929 87.7403 59.4099 87.9533C59.5268 88.1671 59.6015 88.4183 59.634 88.7078C59.6915 89.2223 59.602 89.6236 59.3657 89.9123C59.1293 90.2011 58.7471 90.3751 58.2191 90.4343L57.561 90.5078Z" fill="white"/>
<path d="M60.4635 90.1831L60.1172 87.0886L61.9434 86.8839L61.9761 87.1764L60.4905 87.3429L60.6063 88.3771L61.6593 88.2594L61.6914 88.5459L60.6383 88.6636L60.7711 89.8501L62.3299 89.6761L62.3629 89.9701L60.4635 90.1831Z" fill="white"/>
<path d="M62.9272 89.9067L62.5808 86.8122L62.9319 86.7732L63.2452 89.573L64.6264 89.4185L64.6594 89.7132L62.9272 89.9067Z" fill="white"/>
<path d="M65.1359 89.6602L64.7896 86.5657L66.6158 86.3609L66.6486 86.6534L65.1629 86.8199L65.2786 87.8542L66.3318 87.7364L66.3638 88.0222L65.3106 88.1407L65.4435 89.3272L67.0023 89.1524L67.0353 89.4472L65.1359 89.6602Z" fill="white"/>
<path d="M68.3513 89.3003L68.0382 86.502L67.1355 86.6033L67.1023 86.3063L69.2587 86.0655L69.2919 86.3618L68.3892 86.463L68.7023 89.2605L68.3513 89.3003Z" fill="white"/>
<path d="M70.1191 89.1025L69.7727 86.008L71.599 85.8033L71.6317 86.0958L70.1461 86.2623L70.2618 87.2965L71.3149 87.1788L71.347 87.4653L70.2939 87.583L70.4267 88.7695L71.9854 88.5955L72.0184 88.8903L70.1191 89.1025Z" fill="white"/>
<path d="M45.1425 75.075L47.288 93.8378L33.9338 100.405C33.9338 100.405 31.5608 85.3478 32.5492 82.6928C33.5376 80.0378 35.9043 74.9325 36.4248 72.0668C36.9453 69.201 40.0263 67.0845 42.3149 64.419C44.6036 61.7528 43.3718 57.8183 46.0394 58.2015C48.7068 58.5848 51.5233 63.618 49.4774 67.6253C47.4317 71.6333 45.1425 75.075 45.1425 75.075Z" fill="#FFB294"/>
<path d="M34.0868 101.249L34.0822 101.25C33.9975 101.263 33.9185 101.204 33.9058 101.12C33.8961 101.056 32.9331 94.648 32.3448 88.8535C31.8262 83.7452 32.3684 82.5002 33.2667 80.4377C33.4051 80.1197 33.5483 79.7912 33.6982 79.423C34.2705 78.019 34.7808 76.39 35.2743 74.8135C35.7331 73.3487 36.1664 71.9642 36.5937 70.9577C37.4716 68.8885 41.6297 65.0455 41.8063 64.8835C41.8693 64.825 41.9674 64.8295 42.0254 64.8925C42.0834 64.9555 42.0793 65.053 42.0163 65.1115C41.9736 65.1505 37.731 69.0715 36.8791 71.0785C36.4578 72.0715 36.0267 73.4485 35.5702 74.9065C35.0748 76.4882 34.5625 78.124 33.9854 79.54C33.8341 79.9112 33.6902 80.242 33.551 80.5615C32.6729 82.5775 32.1429 83.7947 32.6532 88.822C33.2408 94.6097 34.2028 101.009 34.2124 101.074C34.225 101.157 34.1689 101.234 34.0868 101.249Z" fill="#010103"/>
<path d="M46.4754 59.2213C45.8431 58.9521 45.2287 58.7631 44.6594 58.6303C43.8661 59.5768 43.9884 61.8291 42.8188 63.7251H42.8198C42.8198 63.7251 43.873 64.0656 44.8495 63.8893C45.8259 63.7123 46.0892 63.2826 46.0892 63.2826L46.9953 60.5323C47.1712 59.9991 46.9444 59.4208 46.4754 59.2213Z" fill="#F78A5E"/>
<path d="M41.3571 71.581C41.328 71.5863 41.2971 71.5833 41.268 71.5705C39.8731 70.966 38.0555 70.855 38.0373 70.8543C37.9518 70.849 37.8864 70.7755 37.8914 70.69C37.8964 70.6045 37.97 70.5393 38.0551 70.5445C38.1317 70.549 39.9464 70.66 41.3913 71.2863C41.4699 71.32 41.5059 71.4115 41.4719 71.4903C41.4505 71.5398 41.4064 71.572 41.3571 71.581Z" fill="#010103"/>
<path d="M40.6295 72.7837C40.6005 72.7889 40.5696 72.7859 40.5404 72.7732C39.1455 72.1694 37.3279 72.0577 37.3097 72.0569C37.2242 72.0517 37.1589 71.9789 37.1638 71.8934C37.1688 71.8079 37.2424 71.7427 37.3276 71.7472C37.4041 71.7517 39.2188 71.8627 40.6637 72.4889C40.7423 72.5227 40.7784 72.6142 40.7443 72.6929C40.723 72.7424 40.6789 72.7747 40.6295 72.7837Z" fill="#010103"/>
<path d="M128.444 150H99.4554C99.4359 149.971 99.4149 149.942 99.3947 149.913C98.3649 148.444 97.3922 147.676 96.5529 147.395C96.1112 147.247 95.6559 147.065 95.1887 146.853L95.1872 146.852C93.9752 146.3 92.6874 145.545 91.3749 144.674C89.9244 143.712 88.4424 142.608 86.9994 141.479C84.8859 139.827 82.8534 138.122 81.1194 136.733C76.7177 133.207 76.8954 133.936 73.3284 131.227C72.4452 130.556 71.1231 129.709 69.7873 128.897L69.7839 128.895C69.7804 128.893 69.7742 128.89 69.7659 128.885C67.9547 127.785 66.1214 126.751 65.3203 126.304C65.1899 126.23 65.087 126.173 65.0159 126.134C65.007 126.13 64.9994 126.125 64.9925 126.121L64.9829 126.115C64.9704 126.109 64.9629 126.105 64.9608 126.104L64.9581 126.102C64.9221 126.081 64.8925 126.049 64.8828 126.009C64.6586 125.131 66.2628 123.39 66.2628 123.39C69.5844 120.458 78.8814 125.484 78.8814 125.484C78.8814 125.484 86.1167 130.23 87.7952 127.707V127.706C87.8117 127.683 87.8274 127.658 87.8417 127.633C89.4287 124.945 84.2522 113.794 84.2522 113.794C84.2522 113.794 72.1325 89.181 71.684 88.4917C70.3973 86.5133 70.2999 83.7075 72.3264 82.629C73.3401 82.089 74.3979 82.3867 75.2027 82.8187C75.9279 83.2087 76.5362 83.7855 76.9929 84.471L89.5314 103.318C89.5682 103.299 89.6057 103.28 89.6424 103.262C92.7009 101.788 98.1864 104.28 98.1864 104.28H98.1872C98.2269 104.266 98.2674 104.252 98.3087 104.24C100.531 103.566 104.781 104.911 104.781 104.911C104.781 104.911 104.821 104.893 104.902 104.87C105.317 104.751 106.819 104.504 109.606 105.948C111.712 107.038 115.243 117.982 117.891 126.696C119.432 131.766 120.674 136.081 121.164 137.258C121.781 138.741 125.078 144.376 128.444 150Z" fill="#FFB294"/>
<path d="M69.844 127.023C69.972 127.683 69.8659 128.478 69.7874 128.897C69.7874 128.897 65.0534 126.152 64.9604 126.103C65.0424 125.835 65.1839 125.6 65.2921 125.323C65.4791 124.847 66.0256 124.608 66.5567 124.755C66.5827 124.762 66.6082 124.77 66.6335 124.779L69.1926 125.692C69.1926 125.692 69.6411 125.977 69.844 127.023Z" fill="#F78A5E"/>
<path d="M66.5642 124.743H66.5595C66.1911 124.73 65.7525 125.075 65.6216 125.409C65.5039 125.71 65.4013 126.02 65.3188 126.309C65.3188 126.309 64.9761 126.112 64.9604 126.104C65.0368 125.846 65.1262 125.584 65.2309 125.318C65.3959 124.898 65.9924 124.545 66.4574 124.706L66.5642 124.743Z" fill="#FDC9BC"/>
<path d="M73.5466 89.4976C73.5065 89.4976 73.4716 89.4931 73.4423 89.4856C72.805 89.3123 71.2375 85.4378 71.1587 85.0951C71.1725 85.1551 71.2322 85.3238 71.3237 85.5601C71.3475 85.2008 72.5902 83.4158 74.3887 83.4158C74.6867 83.4158 75.0001 83.4653 75.3256 83.5778C75.2566 83.4803 75.2154 83.4233 75.2154 83.4233C74.9909 83.3011 74.772 83.2133 74.5603 83.1548C74.7721 83.2133 74.9908 83.3011 75.2154 83.4233C75.2154 83.4233 77.4136 86.4766 77.4256 87.1703C77.4376 87.8326 74.3827 89.4976 73.5466 89.4976Z" fill="#FB9E79"/>
<path d="M71.3235 85.5601C71.232 85.3238 71.1723 85.1551 71.1585 85.0951C71.1585 85.0951 71.1585 85.0943 71.1584 85.0943C71.1584 85.0943 71.1583 85.0943 71.1583 85.0936C71.1582 85.0936 71.1582 85.0936 71.1582 85.0936C71.1582 85.0936 71.1581 85.0928 71.158 85.0928C71.1579 85.0921 71.1579 85.0921 71.1579 85.0921C71.1579 85.0921 71.1578 85.0921 71.1578 85.0913C71.1577 85.0913 71.1577 85.0913 71.1576 85.0906C71.1564 85.0846 71.1558 85.0778 71.1558 85.0703C71.1558 85.0658 71.156 85.0606 71.1565 85.0553C71.1886 84.7058 72.2638 83.0626 73.8888 83.0626C74.1035 83.0626 74.3275 83.0911 74.5602 83.1548C74.7718 83.2133 74.9907 83.3011 75.2152 83.4233C75.2152 83.4233 75.2565 83.4803 75.3255 83.5778C75 83.4653 74.6865 83.4158 74.3886 83.4158C72.59 83.4158 71.3473 85.2008 71.3235 85.5601Z" fill="#FEBEA8"/>
<path d="M87.3608 129.697C87.3923 129.658 88.1325 128.695 88.2533 125.734C88.401 122.133 83.7668 112.536 83.5695 112.129C83.4563 111.901 72.2668 89.3353 71.2378 87.3448C70.2746 85.4825 71.3022 83.7733 71.3764 83.6548C72.1225 82.8035 72.9292 82.3895 73.7743 82.4248C75.3653 82.4908 76.59 84.1318 76.6028 84.1483L89.4285 103.387L92.0753 107.338L92.28 107.201L89.634 103.249L76.8045 84.0065C76.749 83.9308 75.4958 82.25 73.7858 82.178C72.8595 82.139 71.9842 82.5838 71.1845 83.4995L71.1743 83.513C71.162 83.5318 69.9574 85.406 71.0186 87.4588C72.0466 89.447 83.235 112.01 83.3483 112.237C83.3955 112.336 88.152 122.185 88.0065 125.723C87.8895 128.588 87.1748 129.535 87.1673 129.544L87.3608 129.697Z" fill="#1D1D1B"/>
<path d="M101.175 108.845L101.378 108.706L98.2687 104.182L98.2372 104.167C92.9197 101.738 89.619 103.144 89.481 103.205L89.5807 103.431C89.6137 103.417 92.9137 102.019 98.1037 104.378L101.175 108.845Z" fill="#1D1D1B"/>
<path d="M107.465 109.148L107.67 109.012L104.863 104.813L104.829 104.798C101.73 103.479 98.1976 104.152 98.1624 104.159L98.2104 104.401C98.2449 104.394 101.68 103.742 104.699 105.011L107.465 109.148Z" fill="#1D1D1B"/>
<path d="M117.773 126.731L118.01 126.661C117.784 125.893 112.455 107.829 109.955 106.041C107.446 104.244 104.782 104.784 104.756 104.79L104.807 105.032C104.832 105.026 107.393 104.511 109.811 106.241C112.243 107.981 117.718 126.543 117.773 126.731Z" fill="#1D1D1B"/>
<path d="M99.6921 150H99.4041C98.7809 149.102 97.8779 148.085 96.7604 147.601C96.2804 147.394 95.7501 147.141 95.1884 146.853L95.1869 146.852C94.0026 146.245 92.6759 145.486 91.3746 144.674C89.7411 143.656 88.1466 142.555 86.9219 141.576L86.9991 141.479L87.0756 141.383C89.7614 143.532 94.2299 146.168 96.8474 147.37C98.0819 147.937 99.0494 149.06 99.6921 150Z" fill="#1D1D1B"/>
<path d="M104.059 60.7317L73.3314 64.0789C72.7119 64.1464 72.2644 64.7037 72.3319 65.3232L73.6594 77.5099C73.7269 78.1294 74.2838 78.5772 74.9033 78.5097L78.8662 78.0777L77.7682 82.4404L83.6797 77.5534L105.631 75.1624C106.251 75.0949 106.698 74.5377 106.63 73.9182L105.303 61.7314C105.235 61.1119 104.679 60.6642 104.059 60.7317Z" fill="#F7597F"/>
<path d="M81.5925 71.3388L82.164 71.2766C82.3868 71.2526 82.5487 71.2256 82.65 71.1963C82.7512 71.1671 82.833 71.1266 82.8968 71.0756C83.0355 70.9616 83.1307 70.8003 83.1825 70.5926C83.2343 70.3841 83.2432 70.1223 83.2088 69.8058C83.1758 69.5043 83.1128 69.2576 83.0205 69.0656C82.9275 68.8728 82.806 68.7341 82.6545 68.6486C82.5765 68.6043 82.4843 68.5766 82.377 68.5661C82.2698 68.5556 82.0905 68.5638 81.8408 68.5916L81.7763 68.5983L81.2993 68.6501L81.5925 71.3388ZM81.6937 68.3403L81.894 68.3186C82.1378 68.2916 82.3215 68.2856 82.446 68.2998C82.5705 68.3148 82.6808 68.3478 82.7753 68.3988C82.971 68.5046 83.13 68.6741 83.2515 68.9073C83.3738 69.1406 83.4533 69.4271 83.4908 69.7668C83.5305 70.1321 83.5118 70.4448 83.4345 70.7051C83.3573 70.9653 83.223 71.1671 83.0318 71.3103C82.9515 71.3696 82.8503 71.4161 82.7287 71.4506C82.6065 71.4851 82.4175 71.5166 82.1625 71.5443L81.3503 71.6328L81 68.4153L81.6937 68.3403Z" fill="white"/>
<path d="M84.2116 71.3203L83.8613 68.1036L85.7941 67.8928L85.8233 68.1576L84.1606 68.3383L84.2888 69.5113L85.8083 69.3456L85.8361 69.6013L84.3166 69.7663L84.4538 71.0271L86.1661 70.8403L86.1946 71.1043L84.2116 71.3203Z" fill="white"/>
<path d="M86.6962 71.0503L86.3452 67.8328L86.6242 67.8028L86.946 70.7555L88.4535 70.5913L88.4827 70.8553L86.6962 71.0503Z" fill="white"/>
<path d="M88.8315 70.8174L88.4812 67.6006L90.414 67.3899L90.4425 67.6539L88.7805 67.8354L88.908 69.0084L90.4282 68.8426L90.456 69.0984L88.9357 69.2641L89.073 70.5241L90.786 70.3374L90.8145 70.6014L88.8315 70.8174Z" fill="white"/>
<path d="M91.9396 70.479L91.6179 67.5263L90.7014 67.626L90.6729 67.362L92.7841 67.1318L92.8126 67.3958L91.8961 67.4955L92.2179 70.449L91.9396 70.479Z" fill="white"/>
<path d="M93.5011 70.3091L93.1509 67.0923L95.0836 66.8816L95.1129 67.1456L93.4501 67.3271L93.5784 68.4993L95.0979 68.3343L95.1256 68.5893L93.6061 68.7551L93.7434 70.0151L95.4556 69.8291L95.4841 70.0931L93.5011 70.3091Z" fill="white"/>
<path d="M98.0131 69.8164L97.9696 69.4189L98.2404 69.3897L98.2839 69.7872L98.0131 69.8164ZM97.9396 69.0289L97.9096 68.7559C97.8961 68.6337 97.9029 68.5257 97.9291 68.4319C97.9554 68.3389 98.0199 68.2212 98.1226 68.0809C98.1504 68.0404 98.1916 67.9857 98.2464 67.9144C98.4406 67.6624 98.5284 67.4487 98.5089 67.2739C98.4894 67.0902 98.4226 66.9522 98.3101 66.8592C98.1969 66.7662 98.0499 66.7294 97.8699 66.7489C97.6599 66.7722 97.5076 66.8509 97.4139 66.9852C97.3194 67.1202 97.2834 67.3107 97.3044 67.5574L97.0381 67.5867C97.0104 67.2627 97.0666 67.0077 97.2054 66.8217C97.3434 66.6357 97.5586 66.5269 97.8504 66.4947C98.1091 66.4669 98.3244 66.5179 98.4939 66.6492C98.6634 66.7797 98.7624 66.9702 98.7894 67.2192C98.8044 67.3557 98.7939 67.4809 98.7579 67.5949C98.7226 67.7082 98.6574 67.8244 98.5636 67.9422C98.5426 67.9692 98.5111 68.0089 98.4691 68.0607C98.2396 68.3404 98.1354 68.5752 98.1564 68.7642L98.1819 69.0019L97.9396 69.0289Z" fill="white"/>
</svg>
